<mxfile host="app.diagrams.net" modified="2024-03-07T11:48:36.674Z" agent="Mozilla/5.0 (Macintosh; Intel Mac OS X 10_15_7) AppleWebKit/537.36 (KHTML, like Gecko) Chrome/122.0.0.0 Safari/537.36" version="23.1.2" etag="oZ8rUA2ls2KD4Xv_-704" type="github">
  <diagram name="Page-1" id="Nt74OLTMQsjvWxzMgj-O">
    <mxGraphModel>
      <root>
        <mxCell id="0" />
        <mxCell id="1" parent="0" />
      </root>
    </mxGraphModel>
  </diagram>
</mxfile>
